<?xml version="1.0" standalone="no"?>
<!DOCTYPE svg PUBLIC "-//W3C//DTD SVG 20010904//EN"
 "http://www.w3.org/TR/2001/REC-SVG-20010904/DTD/svg10.dtd">
<svg version="1.0" xmlns="http://www.w3.org/2000/svg"
 width="207.000000pt" height="207.000000pt" viewBox="0 0 207.000000 207.000000"
 preserveAspectRatio="xMidYMid meet">
<metadata>
Created by potrace 1.14, written by Peter Selinger 2001-2017
</metadata>
<g transform="translate(0.000000,207.000000) scale(0.100000,-0.100000)"
fill="#000000" stroke="none">
<path d="M348 1928 l-3 -33 -59 -1 c-40 0 -67 -6 -87 -20 -27 -18 -29 -23 -29
-86 0 -69 -2 -73 -42 -69 -14 2 -18 -5 -18 -28 0 -28 3 -31 30 -31 27 0 30 -3
30 -30 0 -27 -3 -30 -30 -30 -27 0 -30 -3 -30 -31 0 -27 3 -30 28 -27 24 3 27
-1 30 -29 3 -31 1 -33 -27 -33 -28 0 -31 -3 -31 -30 0 -27 3 -30 30 -30 27 0
30 -3 30 -30 0 -27 -3 -30 -30 -30 -27 0 -30 -3 -30 -30 0 -27 3 -30 31 -30
27 0 30 -3 27 -27 -2 -16 -9 -28 -18 -29 -36 -2 -40 -6 -40 -33 0 -24 4 -28
27 -27 24 1 28 -3 31 -31 3 -31 1 -33 -27 -33 -26 0 -31 -4 -31 -24 0 -18 7
-25 30 -30 25 -5 30 -10 30 -36 0 -27 -3 -30 -30 -30 -25 0 -30 -4 -30 -25 0
-21 5 -25 31 -25 28 0 30 -2 27 -32 -2 -21 -9 -33 -18 -34 -36 -2 -40 -5 -40
-29 0 -14 5 -26 10 -26 6 -1 15 -3 20 -4 6 -1 15 -3 20 -4 6 0 10 -12 10 -26
0 -21 -5 -25 -30 -25 -27 0 -30 -3 -30 -30 0 -19 5 -30 15 -31 8 -1 21 -2 28
-3 6 0 13 -13 15 -28 3 -25 0 -28 -27 -28 -28 0 -31 -3 -31 -30 0 -27 3 -30
31 -30 28 0 30 -2 27 -33 -2 -27 -7 -32 -28 -32 -20 0 -26 -6 -28 -27 -3 -25
0 -28 28 -28 29 0 31 -2 28 -32 -3 -29 -6 -33 -30 -30 -25 3 -28 0 -28 -27 0
-28 3 -31 30 -31 l30 0 0 -68 c0 -90 16 -106 104 -108 33 -1 64 -2 69 -3 4 -1
7 -15 7 -32 0 -27 3 -30 28 -27 23 2 27 7 24 29 -2 19 2 28 15 31 36 8 53 -2
53 -33 0 -24 4 -29 25 -29 21 0 25 5 25 29 0 16 6 31 13 33 18 7 52 -5 53 -19
1 -7 2 -20 3 -28 0 -10 12 -15 31 -15 27 0 29 3 26 29 -3 24 1 30 20 34 30 5
39 -2 39 -33 0 -21 5 -25 30 -25 27 0 30 3 27 28 -3 24 0 27 27 27 28 0 31 -3
31 -30 0 -27 3 -30 30 -30 26 0 30 3 30 29 0 31 14 41 45 32 13 -4 20 -15 20
-31 0 -20 6 -26 28 -28 24 -3 27 0 27 27 0 48 56 51 62 2 2 -20 9 -27 32 -29
26 -3 28 -1 22 22 -4 18 -1 28 10 34 29 16 54 3 54 -29 0 -26 4 -29 30 -29 26
0 30 3 30 29 0 19 6 30 18 33 29 8 42 -2 42 -33 0 -26 4 -29 30 -29 26 0 30 3
30 29 0 16 6 31 14 34 16 6 48 -14 46 -28 -6 -26 2 -35 30 -35 27 0 29 3 26
29 -2 21 2 31 13 33 34 8 51 -3 51 -33 0 -24 4 -29 25 -29 23 0 30 10 25 35
-3 15 29 33 50 28 14 -4 20 -14 20 -34 0 -24 4 -29 25 -29 21 0 25 5 25 30 0
17 5 30 13 31 6 0 37 1 68 2 82 3 99 21 99 109 l0 68 29 0 c23 0 30 5 33 25 6
30 2 35 -34 35 -24 0 -28 4 -28 30 0 26 3 30 29 30 20 0 30 6 34 19 7 27 -4
39 -33 37 -21 -1 -25 4 -28 31 -3 29 -1 32 29 35 28 3 33 7 34 31 2 24 -1 27
-32 27 -29 0 -33 3 -33 28 0 23 5 28 26 30 35 3 43 9 39 30 -2 9 -4 20 -4 25
-1 4 -14 7 -31 7 -25 0 -30 4 -30 25 0 23 9 28 47 24 11 -1 21 33 15 53 -2 11
-13 16 -30 15 -23 -2 -27 2 -30 30 -3 29 -1 32 29 35 25 2 33 8 34 26 1 19 -3
22 -32 22 -33 0 -34 2 -31 33 2 20 9 33 18 33 8 1 22 2 31 3 12 1 15 8 11 26
-3 20 -10 25 -33 25 -26 0 -29 4 -29 30 0 29 10 36 48 31 6 -1 12 4 13 11 0 7
2 21 4 31 2 10 -3 17 -13 18 -10 1 -24 2 -32 3 -8 0 -16 13 -18 29 -3 24 0 27
27 27 17 0 31 3 32 8 6 54 7 52 -28 52 -30 0 -33 3 -33 30 0 27 3 30 30 30 17
0 31 5 31 10 5 41 3 45 -28 48 -29 3 -33 7 -33 33 0 16 6 29 13 30 6 1 20 2
29 3 10 0 18 4 18 9 1 45 0 47 -30 47 -27 0 -30 3 -30 30 0 26 3 30 29 30 16
0 31 6 34 13 7 19 -6 42 -25 43 -10 1 -22 2 -28 3 -6 0 -10 31 -10 69 0 88
-15 103 -108 105 l-67 2 -3 33 c-3 26 -8 32 -27 32 -19 0 -24 -6 -27 -32 -4
-42 -40 -52 -59 -16 -7 13 -12 24 -11 26 9 12 -2 23 -20 20 -18 -2 -24 -11
-26 -35 -5 -51 -53 -44 -66 10 -6 23 -11 28 -34 25 -22 -2 -26 -8 -27 -33 0
-25 -4 -30 -25 -30 -20 0 -26 6 -30 30 -4 23 -11 31 -32 33 -24 3 -27 -1 -30
-30 -2 -28 -7 -33 -28 -33 -21 0 -26 5 -28 33 -3 29 -6 33 -30 30 -21 -2 -28
-10 -32 -32 -4 -23 -11 -30 -32 -33 -24 -3 -27 0 -30 29 -2 27 -7 33 -27 33
-19 0 -25 -6 -28 -30 -5 -37 -7 -39 -37 -31 -18 4 -26 14 -28 33 -2 18 -10 29
-22 31 -22 5 -36 -14 -31 -40 3 -12 -4 -20 -20 -24 -33 -8 -45 2 -45 37 0 27
-3 30 -27 27 -22 -2 -29 -9 -33 -33 -4 -24 -10 -30 -30 -30 -18 0 -25 6 -26
20 -1 11 -2 26 -3 33 -1 17 -56 12 -57 -5 -1 -7 -2 -21 -3 -31 -1 -20 -50 -29
-52 -9 -1 6 -2 21 -3 32 -1 15 -8 20 -31 20 -26 0 -29 -4 -30 -29 0 -21 -5
-30 -19 -32 -31 -4 -46 7 -46 37 0 24 -4 29 -25 29 -21 0 -25 -5 -25 -29 0
-16 -6 -31 -14 -34 -25 -10 -51 0 -52 19 -1 10 -2 25 -3 32 -1 6 -12 12 -25
12 -21 0 -25 -6 -28 -32z"/>
</g>
</svg>
